<mxfile host="app.diagrams.net" agent="Mozilla/5.0 (Windows NT 10.0; Win64; x64) AppleWebKit/537.36 (KHTML, like Gecko) Chrome/130.0.0.0 Safari/537.36" version="24.8.6">
  <diagram name="P치gina-1" id="cO_aOXXlRo0EH344SKzJ">
    <mxGraphModel dx="1857" dy="1000" grid="1" gridSize="10" guides="1" tooltips="1" connect="1" arrows="1" fold="1" page="1" pageScale="1" pageWidth="583" pageHeight="827" math="0" shadow="0">
      <root>
        <mxCell id="0" />
        <mxCell id="1" parent="0" />
        <mxCell id="GIRHg8xgyU7Pq_L7B4t3-1" value="" style="rounded=0;whiteSpace=wrap;html=1;fontSize=12;" vertex="1" parent="1">
          <mxGeometry x="390" y="90" width="550" height="620" as="geometry" />
        </mxCell>
        <mxCell id="GIRHg8xgyU7Pq_L7B4t3-2" value="PI2-PROJETO (SISTEMA)" style="text;html=1;align=center;verticalAlign=middle;whiteSpace=wrap;rounded=0;fontStyle=1;fontSize=12;" vertex="1" parent="1">
          <mxGeometry x="540" y="60" width="180" height="30" as="geometry" />
        </mxCell>
        <mxCell id="GIRHg8xgyU7Pq_L7B4t3-23" style="edgeStyle=orthogonalEdgeStyle;rounded=0;orthogonalLoop=1;jettySize=auto;html=1;entryX=0;entryY=0.5;entryDx=0;entryDy=0;fillColor=#dae8fc;strokeColor=#6c8ebf;fontSize=12;" edge="1" parent="1" source="GIRHg8xgyU7Pq_L7B4t3-3" target="GIRHg8xgyU7Pq_L7B4t3-15">
          <mxGeometry relative="1" as="geometry" />
        </mxCell>
        <mxCell id="GIRHg8xgyU7Pq_L7B4t3-28" style="edgeStyle=orthogonalEdgeStyle;rounded=0;orthogonalLoop=1;jettySize=auto;html=1;entryX=0;entryY=0.5;entryDx=0;entryDy=0;fillColor=#dae8fc;strokeColor=#6c8ebf;fontSize=12;" edge="1" parent="1" source="GIRHg8xgyU7Pq_L7B4t3-3" target="GIRHg8xgyU7Pq_L7B4t3-10">
          <mxGeometry relative="1" as="geometry" />
        </mxCell>
        <mxCell id="GIRHg8xgyU7Pq_L7B4t3-29" style="edgeStyle=orthogonalEdgeStyle;rounded=0;orthogonalLoop=1;jettySize=auto;html=1;entryX=0;entryY=0.5;entryDx=0;entryDy=0;fillColor=#dae8fc;strokeColor=#6c8ebf;fontSize=12;" edge="1" parent="1" source="GIRHg8xgyU7Pq_L7B4t3-3" target="GIRHg8xgyU7Pq_L7B4t3-11">
          <mxGeometry relative="1" as="geometry" />
        </mxCell>
        <mxCell id="GIRHg8xgyU7Pq_L7B4t3-31" style="edgeStyle=orthogonalEdgeStyle;rounded=0;orthogonalLoop=1;jettySize=auto;html=1;entryX=0;entryY=0.5;entryDx=0;entryDy=0;fillColor=#dae8fc;strokeColor=#6c8ebf;fontSize=12;" edge="1" parent="1" source="GIRHg8xgyU7Pq_L7B4t3-3" target="GIRHg8xgyU7Pq_L7B4t3-6">
          <mxGeometry relative="1" as="geometry" />
        </mxCell>
        <mxCell id="GIRHg8xgyU7Pq_L7B4t3-3" value="Gerente" style="shape=umlActor;verticalLabelPosition=bottom;verticalAlign=top;html=1;outlineConnect=0;fillColor=#dae8fc;strokeColor=#6c8ebf;fontSize=12;" vertex="1" parent="1">
          <mxGeometry x="250" y="170" width="30" height="60" as="geometry" />
        </mxCell>
        <mxCell id="GIRHg8xgyU7Pq_L7B4t3-17" style="edgeStyle=orthogonalEdgeStyle;rounded=0;orthogonalLoop=1;jettySize=auto;html=1;exitX=0.5;exitY=0.5;exitDx=0;exitDy=0;exitPerimeter=0;entryX=0;entryY=0.5;entryDx=0;entryDy=0;fillColor=#f8cecc;strokeColor=#b85450;fontSize=12;" edge="1" parent="1" source="GIRHg8xgyU7Pq_L7B4t3-4" target="GIRHg8xgyU7Pq_L7B4t3-14">
          <mxGeometry relative="1" as="geometry" />
        </mxCell>
        <mxCell id="GIRHg8xgyU7Pq_L7B4t3-18" style="edgeStyle=orthogonalEdgeStyle;rounded=0;orthogonalLoop=1;jettySize=auto;html=1;entryX=0;entryY=0.5;entryDx=0;entryDy=0;fillColor=#f8cecc;strokeColor=#b85450;fontSize=12;" edge="1" parent="1" source="GIRHg8xgyU7Pq_L7B4t3-4" target="GIRHg8xgyU7Pq_L7B4t3-8">
          <mxGeometry relative="1" as="geometry" />
        </mxCell>
        <mxCell id="GIRHg8xgyU7Pq_L7B4t3-19" style="edgeStyle=orthogonalEdgeStyle;rounded=0;orthogonalLoop=1;jettySize=auto;html=1;entryX=0;entryY=0.5;entryDx=0;entryDy=0;fillColor=#f8cecc;strokeColor=#b85450;fontSize=12;" edge="1" parent="1" source="GIRHg8xgyU7Pq_L7B4t3-4" target="GIRHg8xgyU7Pq_L7B4t3-9">
          <mxGeometry relative="1" as="geometry" />
        </mxCell>
        <mxCell id="GIRHg8xgyU7Pq_L7B4t3-20" style="edgeStyle=orthogonalEdgeStyle;rounded=0;orthogonalLoop=1;jettySize=auto;html=1;entryX=0;entryY=0.5;entryDx=0;entryDy=0;fillColor=#f8cecc;strokeColor=#b85450;fontSize=12;" edge="1" parent="1" source="GIRHg8xgyU7Pq_L7B4t3-4" target="GIRHg8xgyU7Pq_L7B4t3-7">
          <mxGeometry relative="1" as="geometry" />
        </mxCell>
        <mxCell id="GIRHg8xgyU7Pq_L7B4t3-22" style="edgeStyle=orthogonalEdgeStyle;rounded=0;orthogonalLoop=1;jettySize=auto;html=1;entryX=0;entryY=0.5;entryDx=0;entryDy=0;fillColor=#f8cecc;strokeColor=#b85450;fontSize=12;" edge="1" parent="1" source="GIRHg8xgyU7Pq_L7B4t3-4" target="GIRHg8xgyU7Pq_L7B4t3-16">
          <mxGeometry relative="1" as="geometry" />
        </mxCell>
        <mxCell id="GIRHg8xgyU7Pq_L7B4t3-4" value="Administrador" style="shape=umlActor;verticalLabelPosition=bottom;verticalAlign=top;html=1;outlineConnect=0;fillColor=#f8cecc;strokeColor=#b85450;fontSize=12;" vertex="1" parent="1">
          <mxGeometry x="250" y="300" width="30" height="60" as="geometry" />
        </mxCell>
        <mxCell id="GIRHg8xgyU7Pq_L7B4t3-5" value="Estoquista" style="shape=umlActor;verticalLabelPosition=bottom;verticalAlign=top;html=1;outlineConnect=0;fillColor=#d5e8d4;strokeColor=#82b366;fontSize=12;" vertex="1" parent="1">
          <mxGeometry x="240" y="420" width="30" height="60" as="geometry" />
        </mxCell>
        <mxCell id="GIRHg8xgyU7Pq_L7B4t3-57" style="edgeStyle=orthogonalEdgeStyle;rounded=0;orthogonalLoop=1;jettySize=auto;html=1;entryX=0.5;entryY=1;entryDx=0;entryDy=0;fontSize=12;" edge="1" parent="1" source="GIRHg8xgyU7Pq_L7B4t3-6" target="GIRHg8xgyU7Pq_L7B4t3-42">
          <mxGeometry relative="1" as="geometry" />
        </mxCell>
        <mxCell id="GIRHg8xgyU7Pq_L7B4t3-6" value="Visualizar estoque" style="ellipse;whiteSpace=wrap;html=1;fontSize=12;" vertex="1" parent="1">
          <mxGeometry x="474" y="470" width="120" height="40" as="geometry" />
        </mxCell>
        <mxCell id="GIRHg8xgyU7Pq_L7B4t3-56" style="edgeStyle=orthogonalEdgeStyle;rounded=0;orthogonalLoop=1;jettySize=auto;html=1;fontSize=12;" edge="1" parent="1" source="GIRHg8xgyU7Pq_L7B4t3-7" target="GIRHg8xgyU7Pq_L7B4t3-42">
          <mxGeometry relative="1" as="geometry" />
        </mxCell>
        <mxCell id="GIRHg8xgyU7Pq_L7B4t3-7" value="An치lises do Estoque" style="ellipse;whiteSpace=wrap;html=1;fontSize=12;" vertex="1" parent="1">
          <mxGeometry x="474" y="420" width="120" height="40" as="geometry" />
        </mxCell>
        <mxCell id="GIRHg8xgyU7Pq_L7B4t3-58" style="edgeStyle=orthogonalEdgeStyle;rounded=0;orthogonalLoop=1;jettySize=auto;html=1;entryX=0.5;entryY=1;entryDx=0;entryDy=0;fontSize=12;" edge="1" parent="1" source="GIRHg8xgyU7Pq_L7B4t3-8" target="GIRHg8xgyU7Pq_L7B4t3-42">
          <mxGeometry relative="1" as="geometry" />
        </mxCell>
        <mxCell id="GIRHg8xgyU7Pq_L7B4t3-8" value="Comprar Mercadoria" style="ellipse;whiteSpace=wrap;html=1;fontSize=12;" vertex="1" parent="1">
          <mxGeometry x="474" y="520" width="120" height="40" as="geometry" />
        </mxCell>
        <mxCell id="GIRHg8xgyU7Pq_L7B4t3-59" style="edgeStyle=orthogonalEdgeStyle;rounded=0;orthogonalLoop=1;jettySize=auto;html=1;entryX=0.5;entryY=1;entryDx=0;entryDy=0;fontSize=12;" edge="1" parent="1" source="GIRHg8xgyU7Pq_L7B4t3-9" target="GIRHg8xgyU7Pq_L7B4t3-42">
          <mxGeometry relative="1" as="geometry" />
        </mxCell>
        <mxCell id="GIRHg8xgyU7Pq_L7B4t3-9" value="Status Mercadoria" style="ellipse;whiteSpace=wrap;html=1;fontSize=12;" vertex="1" parent="1">
          <mxGeometry x="474" y="570" width="120" height="40" as="geometry" />
        </mxCell>
        <mxCell id="GIRHg8xgyU7Pq_L7B4t3-54" style="edgeStyle=orthogonalEdgeStyle;rounded=0;orthogonalLoop=1;jettySize=auto;html=1;fontSize=12;" edge="1" parent="1" source="GIRHg8xgyU7Pq_L7B4t3-10" target="GIRHg8xgyU7Pq_L7B4t3-42">
          <mxGeometry relative="1" as="geometry" />
        </mxCell>
        <mxCell id="GIRHg8xgyU7Pq_L7B4t3-10" value="Cadastrar Produto" style="ellipse;whiteSpace=wrap;html=1;fontSize=12;" vertex="1" parent="1">
          <mxGeometry x="474" y="320" width="120" height="40" as="geometry" />
        </mxCell>
        <mxCell id="GIRHg8xgyU7Pq_L7B4t3-55" style="edgeStyle=orthogonalEdgeStyle;rounded=0;orthogonalLoop=1;jettySize=auto;html=1;fontSize=12;" edge="1" parent="1" source="GIRHg8xgyU7Pq_L7B4t3-11" target="GIRHg8xgyU7Pq_L7B4t3-42">
          <mxGeometry relative="1" as="geometry" />
        </mxCell>
        <mxCell id="GIRHg8xgyU7Pq_L7B4t3-11" value="Editar Produto" style="ellipse;whiteSpace=wrap;html=1;fontSize=12;" vertex="1" parent="1">
          <mxGeometry x="474" y="370" width="120" height="40" as="geometry" />
        </mxCell>
        <mxCell id="GIRHg8xgyU7Pq_L7B4t3-52" style="edgeStyle=orthogonalEdgeStyle;rounded=0;orthogonalLoop=1;jettySize=auto;html=1;fontSize=12;" edge="1" parent="1" source="GIRHg8xgyU7Pq_L7B4t3-12">
          <mxGeometry relative="1" as="geometry">
            <mxPoint x="700" y="300" as="targetPoint" />
          </mxGeometry>
        </mxCell>
        <mxCell id="GIRHg8xgyU7Pq_L7B4t3-12" value="Cadastrar Usu치rio" style="ellipse;whiteSpace=wrap;html=1;fontSize=12;" vertex="1" parent="1">
          <mxGeometry x="474" y="220" width="120" height="40" as="geometry" />
        </mxCell>
        <mxCell id="GIRHg8xgyU7Pq_L7B4t3-53" style="edgeStyle=orthogonalEdgeStyle;rounded=0;orthogonalLoop=1;jettySize=auto;html=1;entryX=0.5;entryY=0;entryDx=0;entryDy=0;fontSize=12;" edge="1" parent="1" source="GIRHg8xgyU7Pq_L7B4t3-13" target="GIRHg8xgyU7Pq_L7B4t3-42">
          <mxGeometry relative="1" as="geometry" />
        </mxCell>
        <mxCell id="GIRHg8xgyU7Pq_L7B4t3-13" value="Editar Usu치rio" style="ellipse;whiteSpace=wrap;html=1;fontSize=12;" vertex="1" parent="1">
          <mxGeometry x="474" y="270" width="120" height="40" as="geometry" />
        </mxCell>
        <mxCell id="GIRHg8xgyU7Pq_L7B4t3-60" style="edgeStyle=orthogonalEdgeStyle;rounded=0;orthogonalLoop=1;jettySize=auto;html=1;fontSize=12;" edge="1" parent="1" source="GIRHg8xgyU7Pq_L7B4t3-14" target="GIRHg8xgyU7Pq_L7B4t3-42">
          <mxGeometry relative="1" as="geometry" />
        </mxCell>
        <mxCell id="GIRHg8xgyU7Pq_L7B4t3-14" value="Visualizar Logs" style="ellipse;whiteSpace=wrap;html=1;fontSize=12;" vertex="1" parent="1">
          <mxGeometry x="474" y="620" width="120" height="40" as="geometry" />
        </mxCell>
        <mxCell id="GIRHg8xgyU7Pq_L7B4t3-48" style="edgeStyle=orthogonalEdgeStyle;rounded=0;orthogonalLoop=1;jettySize=auto;html=1;fontSize=12;" edge="1" parent="1" source="GIRHg8xgyU7Pq_L7B4t3-15" target="GIRHg8xgyU7Pq_L7B4t3-42">
          <mxGeometry relative="1" as="geometry" />
        </mxCell>
        <mxCell id="GIRHg8xgyU7Pq_L7B4t3-15" value="Cadastro Funcion치rio" style="ellipse;whiteSpace=wrap;html=1;fontSize=12;" vertex="1" parent="1">
          <mxGeometry x="474" y="120" width="120" height="40" as="geometry" />
        </mxCell>
        <mxCell id="GIRHg8xgyU7Pq_L7B4t3-51" style="edgeStyle=orthogonalEdgeStyle;rounded=0;orthogonalLoop=1;jettySize=auto;html=1;entryX=0.5;entryY=0;entryDx=0;entryDy=0;fontSize=12;" edge="1" parent="1" source="GIRHg8xgyU7Pq_L7B4t3-16" target="GIRHg8xgyU7Pq_L7B4t3-42">
          <mxGeometry relative="1" as="geometry" />
        </mxCell>
        <mxCell id="GIRHg8xgyU7Pq_L7B4t3-16" value="Editar Funcion치rio" style="ellipse;whiteSpace=wrap;html=1;fontSize=12;" vertex="1" parent="1">
          <mxGeometry x="474" y="170" width="120" height="40" as="geometry" />
        </mxCell>
        <mxCell id="GIRHg8xgyU7Pq_L7B4t3-21" style="edgeStyle=orthogonalEdgeStyle;rounded=0;orthogonalLoop=1;jettySize=auto;html=1;entryX=0;entryY=0.5;entryDx=0;entryDy=0;fillColor=#f8cecc;strokeColor=#b85450;fontSize=12;" edge="1" parent="1" source="GIRHg8xgyU7Pq_L7B4t3-4" target="GIRHg8xgyU7Pq_L7B4t3-13">
          <mxGeometry relative="1" as="geometry" />
        </mxCell>
        <mxCell id="GIRHg8xgyU7Pq_L7B4t3-25" style="edgeStyle=orthogonalEdgeStyle;rounded=0;orthogonalLoop=1;jettySize=auto;html=1;entryX=0.033;entryY=0.725;entryDx=0;entryDy=0;entryPerimeter=0;fillColor=#dae8fc;strokeColor=#6c8ebf;fontSize=12;" edge="1" parent="1" source="GIRHg8xgyU7Pq_L7B4t3-3" target="GIRHg8xgyU7Pq_L7B4t3-16">
          <mxGeometry relative="1" as="geometry" />
        </mxCell>
        <mxCell id="GIRHg8xgyU7Pq_L7B4t3-26" style="edgeStyle=orthogonalEdgeStyle;rounded=0;orthogonalLoop=1;jettySize=auto;html=1;entryX=0;entryY=0.5;entryDx=0;entryDy=0;fillColor=#dae8fc;strokeColor=#6c8ebf;fontSize=12;" edge="1" parent="1" source="GIRHg8xgyU7Pq_L7B4t3-3" target="GIRHg8xgyU7Pq_L7B4t3-12">
          <mxGeometry relative="1" as="geometry" />
        </mxCell>
        <mxCell id="GIRHg8xgyU7Pq_L7B4t3-27" style="edgeStyle=orthogonalEdgeStyle;rounded=0;orthogonalLoop=1;jettySize=auto;html=1;entryX=-0.001;entryY=0.668;entryDx=0;entryDy=0;entryPerimeter=0;fillColor=#dae8fc;strokeColor=#6c8ebf;fontSize=12;" edge="1" parent="1" source="GIRHg8xgyU7Pq_L7B4t3-3" target="GIRHg8xgyU7Pq_L7B4t3-13">
          <mxGeometry relative="1" as="geometry" />
        </mxCell>
        <mxCell id="GIRHg8xgyU7Pq_L7B4t3-30" style="edgeStyle=orthogonalEdgeStyle;rounded=0;orthogonalLoop=1;jettySize=auto;html=1;entryX=0.008;entryY=0.718;entryDx=0;entryDy=0;entryPerimeter=0;fillColor=#dae8fc;strokeColor=#6c8ebf;fontSize=12;" edge="1" parent="1" source="GIRHg8xgyU7Pq_L7B4t3-3" target="GIRHg8xgyU7Pq_L7B4t3-7">
          <mxGeometry relative="1" as="geometry" />
        </mxCell>
        <mxCell id="GIRHg8xgyU7Pq_L7B4t3-32" style="edgeStyle=orthogonalEdgeStyle;rounded=0;orthogonalLoop=1;jettySize=auto;html=1;entryX=0.004;entryY=0.704;entryDx=0;entryDy=0;entryPerimeter=0;fillColor=#dae8fc;strokeColor=#6c8ebf;fontSize=12;" edge="1" parent="1" source="GIRHg8xgyU7Pq_L7B4t3-3" target="GIRHg8xgyU7Pq_L7B4t3-8">
          <mxGeometry relative="1" as="geometry" />
        </mxCell>
        <mxCell id="GIRHg8xgyU7Pq_L7B4t3-34" style="edgeStyle=orthogonalEdgeStyle;rounded=0;orthogonalLoop=1;jettySize=auto;html=1;entryX=0.004;entryY=0.682;entryDx=0;entryDy=0;entryPerimeter=0;fillColor=#dae8fc;strokeColor=#6c8ebf;fontSize=12;" edge="1" parent="1" source="GIRHg8xgyU7Pq_L7B4t3-3" target="GIRHg8xgyU7Pq_L7B4t3-9">
          <mxGeometry relative="1" as="geometry" />
        </mxCell>
        <mxCell id="GIRHg8xgyU7Pq_L7B4t3-36" style="edgeStyle=orthogonalEdgeStyle;rounded=0;orthogonalLoop=1;jettySize=auto;html=1;entryX=0.004;entryY=0.325;entryDx=0;entryDy=0;entryPerimeter=0;fillColor=#d5e8d4;strokeColor=#82b366;fontSize=12;" edge="1" parent="1" source="GIRHg8xgyU7Pq_L7B4t3-5" target="GIRHg8xgyU7Pq_L7B4t3-9">
          <mxGeometry relative="1" as="geometry" />
        </mxCell>
        <mxCell id="GIRHg8xgyU7Pq_L7B4t3-37" style="edgeStyle=orthogonalEdgeStyle;rounded=0;orthogonalLoop=1;jettySize=auto;html=1;entryX=0.004;entryY=0.325;entryDx=0;entryDy=0;entryPerimeter=0;fillColor=#d5e8d4;strokeColor=#82b366;fontSize=12;" edge="1" parent="1" source="GIRHg8xgyU7Pq_L7B4t3-5" target="GIRHg8xgyU7Pq_L7B4t3-6">
          <mxGeometry relative="1" as="geometry" />
        </mxCell>
        <mxCell id="GIRHg8xgyU7Pq_L7B4t3-39" style="edgeStyle=orthogonalEdgeStyle;rounded=0;orthogonalLoop=1;jettySize=auto;html=1;entryX=0.188;entryY=0.468;entryDx=0;entryDy=0;entryPerimeter=0;fillColor=#d5e8d4;strokeColor=#82b366;fontSize=12;" edge="1" parent="1" source="GIRHg8xgyU7Pq_L7B4t3-5" target="GIRHg8xgyU7Pq_L7B4t3-1">
          <mxGeometry relative="1" as="geometry" />
        </mxCell>
        <mxCell id="GIRHg8xgyU7Pq_L7B4t3-40" style="edgeStyle=orthogonalEdgeStyle;rounded=0;orthogonalLoop=1;jettySize=auto;html=1;entryX=-0.001;entryY=0.318;entryDx=0;entryDy=0;entryPerimeter=0;fillColor=#d5e8d4;strokeColor=#82b366;fontSize=12;" edge="1" parent="1" source="GIRHg8xgyU7Pq_L7B4t3-5" target="GIRHg8xgyU7Pq_L7B4t3-10">
          <mxGeometry relative="1" as="geometry" />
        </mxCell>
        <mxCell id="GIRHg8xgyU7Pq_L7B4t3-68" style="edgeStyle=orthogonalEdgeStyle;rounded=0;orthogonalLoop=1;jettySize=auto;html=1;entryX=0.5;entryY=0;entryDx=0;entryDy=0;fontSize=12;" edge="1" parent="1" source="GIRHg8xgyU7Pq_L7B4t3-42" target="GIRHg8xgyU7Pq_L7B4t3-44">
          <mxGeometry relative="1" as="geometry">
            <Array as="points">
              <mxPoint x="780" y="330" />
            </Array>
          </mxGeometry>
        </mxCell>
        <mxCell id="GIRHg8xgyU7Pq_L7B4t3-42" value="Servlets" style="ellipse;whiteSpace=wrap;html=1;fontSize=12;" vertex="1" parent="1">
          <mxGeometry x="640" y="300" width="120" height="60" as="geometry" />
        </mxCell>
        <mxCell id="GIRHg8xgyU7Pq_L7B4t3-44" value="DAOs" style="ellipse;whiteSpace=wrap;html=1;fontSize=12;" vertex="1" parent="1">
          <mxGeometry x="720" y="370" width="120" height="60" as="geometry" />
        </mxCell>
        <mxCell id="GIRHg8xgyU7Pq_L7B4t3-45" value="ConnectionFactory" style="ellipse;whiteSpace=wrap;html=1;fontSize=12;" vertex="1" parent="1">
          <mxGeometry x="720" y="470" width="120" height="60" as="geometry" />
        </mxCell>
        <mxCell id="GIRHg8xgyU7Pq_L7B4t3-46" value="DatabaseInitializer" style="ellipse;whiteSpace=wrap;html=1;fontSize=12;" vertex="1" parent="1">
          <mxGeometry x="740" y="575" width="120" height="60" as="geometry" />
        </mxCell>
        <mxCell id="GIRHg8xgyU7Pq_L7B4t3-65" value="&amp;lt;&amp;lt;include&amp;gt;&amp;gt;" style="text;html=1;align=center;verticalAlign=middle;whiteSpace=wrap;rounded=0;fontSize=12;" vertex="1" parent="1">
          <mxGeometry x="635" y="360" width="60" height="30" as="geometry" />
        </mxCell>
        <mxCell id="GIRHg8xgyU7Pq_L7B4t3-66" value="&amp;lt;&amp;lt;include&amp;gt;&amp;gt;" style="text;html=1;align=center;verticalAlign=middle;whiteSpace=wrap;rounded=0;fontSize=12;" vertex="1" parent="1">
          <mxGeometry x="580" y="300" width="60" height="30" as="geometry" />
        </mxCell>
        <mxCell id="GIRHg8xgyU7Pq_L7B4t3-67" value="&amp;lt;&amp;lt;include&amp;gt;&amp;gt;" style="text;html=1;align=center;verticalAlign=middle;whiteSpace=wrap;rounded=0;fontSize=12;" vertex="1" parent="1">
          <mxGeometry x="710" y="275" width="60" height="30" as="geometry" />
        </mxCell>
        <mxCell id="GIRHg8xgyU7Pq_L7B4t3-69" value="&amp;lt;&amp;lt;include&amp;gt;&amp;gt;" style="text;html=1;align=center;verticalAlign=middle;whiteSpace=wrap;rounded=0;fontSize=12;" vertex="1" parent="1">
          <mxGeometry x="790" y="320" width="60" height="30" as="geometry" />
        </mxCell>
        <mxCell id="GIRHg8xgyU7Pq_L7B4t3-70" style="edgeStyle=orthogonalEdgeStyle;rounded=0;orthogonalLoop=1;jettySize=auto;html=1;entryX=0.508;entryY=0.061;entryDx=0;entryDy=0;entryPerimeter=0;fontSize=12;" edge="1" parent="1" source="GIRHg8xgyU7Pq_L7B4t3-44" target="GIRHg8xgyU7Pq_L7B4t3-45">
          <mxGeometry relative="1" as="geometry" />
        </mxCell>
        <mxCell id="GIRHg8xgyU7Pq_L7B4t3-71" value="&amp;lt;&amp;lt;include&amp;gt;&amp;gt;" style="text;html=1;align=center;verticalAlign=middle;whiteSpace=wrap;rounded=0;fontSize=12;" vertex="1" parent="1">
          <mxGeometry x="790" y="440" width="60" height="30" as="geometry" />
        </mxCell>
      </root>
    </mxGraphModel>
  </diagram>
</mxfile>
